<svg width="83" height="40" viewBox="0 0 83 40" fill="none" xmlns="http://www.w3.org/2000/svg">
<rect width="83" height="40" fill="#FF4920"/>
<path d="M21.375 26V14.3594H23.4688L26.3438 21.7188C26.4115 21.8906 26.487 22.1068 26.5703 22.3672C26.6589 22.6224 26.75 22.8984 26.8438 23.1953C26.9427 23.4922 27.0365 23.7891 27.125 24.0859C27.2135 24.3776 27.2917 24.6432 27.3594 24.8828H27.0312C27.1042 24.6536 27.1849 24.3958 27.2734 24.1094C27.362 23.8229 27.4531 23.5286 27.5469 23.2266C27.6458 22.9245 27.7396 22.6432 27.8281 22.3828C27.9167 22.1172 27.9948 21.8958 28.0625 21.7188L30.8984 14.3594H32.9922V26H31.5391V19.3438C31.5391 19.099 31.5391 18.8255 31.5391 18.5234C31.5443 18.2161 31.5495 17.8958 31.5547 17.5625C31.5651 17.2292 31.5729 16.8906 31.5781 16.5469C31.5885 16.2031 31.5964 15.8672 31.6016 15.5391H31.7344C31.625 15.8984 31.5078 16.263 31.3828 16.6328C31.263 17.0026 31.1432 17.3594 31.0234 17.7031C30.9089 18.0417 30.7995 18.3542 30.6953 18.6406C30.5911 18.9219 30.5026 19.1562 30.4297 19.3438L27.8203 26H26.5469L23.8984 19.3438C23.8255 19.1615 23.7396 18.9323 23.6406 18.6562C23.5417 18.3802 23.4323 18.0755 23.3125 17.7422C23.1979 17.4036 23.0781 17.0469 22.9531 16.6719C22.8281 16.2969 22.6979 15.9193 22.5625 15.5391H22.7188C22.7292 15.8307 22.737 16.1458 22.7422 16.4844C22.7526 16.8177 22.7604 17.1562 22.7656 17.5C22.7708 17.8385 22.776 18.1667 22.7812 18.4844C22.7865 18.8021 22.7891 19.0885 22.7891 19.3438V26H21.375ZM39.2266 26.1875C38.3828 26.1875 37.6562 26 37.0469 25.625C36.4427 25.25 35.9766 24.7292 35.6484 24.0625C35.3203 23.3906 35.1562 22.612 35.1562 21.7266C35.1562 20.8359 35.3177 20.0521 35.6406 19.375C35.9635 18.6927 36.4193 18.1615 37.0078 17.7812C37.5964 17.3958 38.2839 17.2031 39.0703 17.2031C39.5443 17.2031 40.0052 17.2839 40.4531 17.4453C40.9062 17.6016 41.3151 17.8542 41.6797 18.2031C42.0443 18.5469 42.3333 18.9974 42.5469 19.5547C42.7604 20.1068 42.8672 20.776 42.8672 21.5625V22.125H36.0859V20.9453H42.1094L41.4609 21.375C41.4609 20.8021 41.3698 20.2969 41.1875 19.8594C41.0052 19.4167 40.737 19.0703 40.3828 18.8203C40.0286 18.5703 39.5911 18.4453 39.0703 18.4453C38.5443 18.4453 38.0938 18.5729 37.7188 18.8281C37.349 19.0833 37.0651 19.4193 36.8672 19.8359C36.6693 20.2474 36.5703 20.6927 36.5703 21.1719V21.9375C36.5703 22.5781 36.6797 23.1224 36.8984 23.5703C37.1224 24.0182 37.4323 24.3594 37.8281 24.5938C38.2292 24.8281 38.6979 24.9453 39.2344 24.9453C39.5833 24.9453 39.8984 24.8958 40.1797 24.7969C40.4609 24.6927 40.7031 24.5391 40.9062 24.3359C41.1094 24.1328 41.263 23.8828 41.3672 23.5859L42.7266 23.9219C42.5964 24.3698 42.3672 24.763 42.0391 25.1016C41.7161 25.4401 41.3151 25.7057 40.8359 25.8984C40.362 26.0911 39.8255 26.1875 39.2266 26.1875ZM46.2266 20.8125V26H44.8281V17.3203H46.1797L46.1875 19.4219H45.9688C46.2344 18.625 46.612 18.0573 47.1016 17.7188C47.5964 17.375 48.1719 17.2031 48.8281 17.2031C49.4167 17.2031 49.9323 17.3255 50.375 17.5703C50.8177 17.8099 51.1641 18.1745 51.4141 18.6641C51.6693 19.1484 51.7969 19.7604 51.7969 20.5V26H50.3984V20.6172C50.3984 19.9401 50.2214 19.4141 49.8672 19.0391C49.5182 18.6589 49.0391 18.4688 48.4297 18.4688C48.013 18.4688 47.638 18.5599 47.3047 18.7422C46.9714 18.9193 46.7083 19.1823 46.5156 19.5312C46.3229 19.8802 46.2266 20.3073 46.2266 20.8125ZM57.1719 26.1172C56.5885 26.1172 56.0729 25.9974 55.625 25.7578C55.1823 25.513 54.8333 25.1458 54.5781 24.6562C54.3281 24.1667 54.2031 23.5547 54.2031 22.8203V17.3203H55.6016V22.7031C55.6016 23.3802 55.7786 23.9089 56.1328 24.2891C56.487 24.6641 56.9688 24.8516 57.5781 24.8516C57.9948 24.8516 58.3672 24.763 58.6953 24.5859C59.0286 24.4036 59.2917 24.138 59.4844 23.7891C59.6771 23.4349 59.7734 23.0078 59.7734 22.5078V17.3203H61.1719V26H59.8203V23.8984H60.0312C59.7604 24.7057 59.3776 25.2786 58.8828 25.6172C58.388 25.9505 57.8177 26.1172 57.1719 26.1172Z" fill="white"/>
</svg>
