<svg width="186" height="160" viewBox="0 0 186 160" fill="none" xmlns="http://www.w3.org/2000/svg">
<g clip-path="url(#clip0_232_191)">
<g filter="url(#filter0_d_232_191)">
<circle cx="93" cy="80" r="80" fill="#E2E2E2"/>
</g>
<path d="M45.5473 119.134C44.9867 119.799 44.7806 120.56 44.9292 121.417C45.0777 122.274 45.5131 123.089 46.2352 123.86C46.7633 124.424 47.3166 124.833 47.8951 125.085C48.4698 125.333 49.0275 125.426 49.5682 125.363C50.1051 125.297 50.5768 125.073 50.9833 124.693C51.3235 124.374 51.5402 124.02 51.6335 123.629C51.7188 123.238 51.722 122.838 51.643 122.429C51.5599 122.024 51.4382 121.632 51.2779 121.253C51.1134 120.878 50.9516 120.543 50.7926 120.248L49.9296 118.628C49.7061 118.215 49.4808 117.733 49.2538 117.183C49.0229 116.628 48.8655 116.04 48.7815 115.418C48.6895 114.796 48.7343 114.171 48.9159 113.541C49.0975 112.912 49.487 112.318 50.0843 111.759C50.7729 111.115 51.564 110.713 52.4577 110.553C53.3475 110.39 54.2785 110.499 55.2507 110.881C56.2191 111.258 57.1614 111.937 58.0777 112.916C58.9319 113.828 59.5243 114.756 59.8549 115.7C60.1816 116.639 60.2602 117.546 60.0906 118.421C59.9171 119.292 59.5052 120.078 58.8549 120.78L57.3639 119.187C57.8063 118.695 58.0531 118.161 58.1043 117.584C58.1475 117.006 58.042 116.428 57.7878 115.849C57.5256 115.269 57.1576 114.726 56.6839 114.22C56.1326 113.631 55.5421 113.192 54.9126 112.902C54.2789 112.615 53.6617 112.496 53.0612 112.545C52.4565 112.597 51.9218 112.841 51.4572 113.276C51.0341 113.672 50.8004 114.112 50.7563 114.597C50.7121 115.082 50.7876 115.595 50.9828 116.136C51.1779 116.677 51.423 117.23 51.7178 117.795L52.7375 119.782C53.3831 121.045 53.7122 122.216 53.7248 123.294C53.7375 124.372 53.3144 125.312 52.4557 126.116C51.7423 126.784 50.9395 127.173 50.0474 127.285C49.1473 127.395 48.2433 127.261 47.3353 126.881C46.4193 126.501 45.5807 125.905 44.8197 125.092C44.051 124.27 43.5149 123.402 43.2114 122.488C42.9039 121.577 42.8284 120.699 42.9851 119.852C43.1378 119 43.526 118.263 44.1495 117.641L45.5473 119.134Z" fill="black"/>
<path d="M32.0736 79.9379L32.3351 82.0353C31.7473 82.2346 31.2443 82.5177 30.8263 82.8848C30.4076 83.2461 30.0706 83.6661 29.8153 84.1445C29.5537 84.618 29.377 85.1296 29.2852 85.6793C29.1934 86.2289 29.1833 86.7913 29.255 87.3664C29.3858 88.4151 29.7692 89.3321 30.4054 90.1174C31.0408 90.897 31.9057 91.4734 33 91.8466C34.0937 92.2141 35.3904 92.3044 36.8901 92.1174C38.3899 91.9304 39.6247 91.5246 40.5946 90.8998C41.5638 90.2693 42.2607 89.4982 42.6853 88.5864C43.1091 87.669 43.2557 86.6859 43.1249 85.6372C43.0532 85.0621 42.9054 84.5194 42.6815 84.0091C42.4575 83.4988 42.1634 83.0459 41.7992 82.6504C41.4287 82.25 40.996 81.9261 40.5014 81.6785C40.0004 81.4261 39.4434 81.2751 38.8302 81.2255L38.5688 79.1281C39.4736 79.1757 40.3016 79.3644 41.0528 79.6945C41.8039 80.0246 42.4634 80.4691 43.0313 81.0282C43.5935 81.5879 44.0496 82.2382 44.3996 82.979C44.7489 83.7141 44.9781 84.5187 45.087 85.3926C45.2712 86.8698 45.0741 88.2285 44.4958 89.4686C43.9175 90.7088 43.0042 91.7417 41.7559 92.5672C40.5075 93.3928 38.9699 93.9194 37.1432 94.1472C35.3164 94.3749 33.6966 94.2419 32.2837 93.7481C30.8709 93.2544 29.7319 92.4774 28.8668 91.4171C28.0017 90.3569 27.4771 89.0882 27.293 87.611C27.184 86.7371 27.2086 85.9009 27.3667 85.1025C27.5241 84.2985 27.8094 83.5557 28.2226 82.8744C28.6302 82.1937 29.1575 81.6012 29.8046 81.0968C30.4461 80.5932 31.2024 80.2068 32.0736 79.9379Z" fill="black"/>
<path d="M47.6963 61.4528L32.4145 53.0191L35.2641 47.8555C35.923 46.6616 36.6678 45.7942 37.4985 45.2532C38.3242 44.7095 39.1919 44.4486 40.1014 44.4703C41.011 44.492 41.9159 44.7513 42.8163 45.2482C43.7167 45.7451 44.4135 46.3698 44.9068 47.1223C45.4001 47.8748 45.6357 48.7414 45.6136 49.7221C45.5866 50.7001 45.2464 51.781 44.593 52.965L42.2869 57.1436L40.6154 56.2212L42.8886 52.1022C43.3388 51.2864 43.5818 50.5639 43.6176 49.9347C43.6561 49.3004 43.5182 48.7506 43.204 48.2852C42.8875 47.812 42.4234 47.4066 41.8115 47.0689C41.1997 46.7312 40.6017 46.5505 40.0178 46.5268C39.4339 46.503 38.8789 46.6737 38.3529 47.0389C37.8219 47.4013 37.3285 47.9954 36.8728 48.8212L35.0773 52.0745L48.7175 59.6023L47.6963 61.4528ZM44.8012 50.471L53.7415 50.4989L52.5555 52.6479L43.6481 52.5604L44.8012 50.471Z" fill="black"/>
<path d="M76.0162 24.4791C76.7973 26.1461 77.1713 27.7277 77.1383 29.224C77.1053 30.7203 76.7183 32.0436 75.9773 33.194C75.2363 34.3444 74.1918 35.2354 72.8438 35.867C71.4958 36.4986 70.1427 36.7311 68.7846 36.5643C67.4264 36.3976 66.1619 35.8481 64.991 34.916C63.82 33.9838 62.844 32.6842 62.0629 31.0173C61.2818 29.3503 60.9078 27.7686 60.9408 26.2724C60.9738 24.7761 61.3608 23.4527 62.1018 22.3024C62.8428 21.152 63.8873 20.261 65.2353 19.6294C66.5833 18.9977 67.9364 18.7653 69.2945 18.9321C70.6527 19.0988 71.9172 19.6483 73.0881 20.5804C74.2591 21.5126 75.2351 22.8121 76.0162 24.4791ZM74.164 25.347C73.5227 23.9785 72.7525 22.9307 71.8534 22.2037C70.9595 21.4743 70.0108 21.0498 69.0073 20.9302C68.0089 20.8082 67.0312 20.9714 66.0743 21.4198C65.1173 21.8682 64.3637 22.5163 63.8134 23.3639C63.2682 24.2092 62.9873 25.2099 62.9706 26.366C62.959 27.5197 63.2739 28.7808 63.9151 30.1494C64.5564 31.5179 65.324 32.5669 66.218 33.2963C67.117 34.0233 68.0658 34.4478 69.0641 34.5698C70.0676 34.6894 71.0479 34.525 72.0048 34.0765C72.9618 33.6281 73.7129 32.9813 74.258 32.136C74.8083 31.2884 75.0892 30.2877 75.1008 29.134C75.1175 27.9779 74.8052 26.7156 74.164 25.347Z" fill="black"/>
<path d="M97.7127 31.2259L101.011 14.0859L103.087 14.4853L100.143 29.7841L108.11 31.3175L107.756 33.1587L97.7127 31.2259Z" fill="black"/>
<path d="M125.318 43.2461L138.061 31.3184L139.505 32.8616L128.131 43.508L133.675 49.4316L132.307 50.7129L125.318 43.2461Z" fill="black"/>
<path d="M140.995 72.4894L140.328 67.1444L157.649 64.985L158.345 70.5668C158.554 72.247 158.387 73.728 157.842 75.0097C157.303 76.2908 156.428 77.3303 155.216 78.1284C154.01 78.9258 152.511 79.4363 150.718 79.6598C148.914 79.8847 147.32 79.757 145.938 79.2766C144.561 78.7955 143.446 77.984 142.594 76.8421C141.747 75.6994 141.214 74.2485 140.995 72.4894ZM142.451 69.0099L142.839 72.1221C143.017 73.5542 143.441 74.7066 144.111 75.5793C144.781 76.452 145.655 77.0559 146.733 77.391C147.812 77.7261 149.055 77.8058 150.465 77.63C151.863 77.4557 153.038 77.0773 153.991 76.4948C154.949 75.9116 155.642 75.1323 156.07 74.1571C156.504 73.1812 156.636 72.0166 156.467 70.6635L156.05 67.3144L142.451 69.0099Z" fill="black"/>
<path d="M139.238 114.408C137.626 113.519 136.394 112.459 135.541 111.229C134.688 109.999 134.224 108.701 134.147 107.335C134.07 105.969 134.392 104.634 135.111 103.331C135.83 102.028 136.788 101.044 137.985 100.381C139.182 99.7173 140.528 99.4186 142.023 99.4845C143.518 99.5503 145.072 100.028 146.683 100.918C148.295 101.807 149.527 102.867 150.38 104.097C151.233 105.327 151.698 106.625 151.774 107.991C151.851 109.357 151.53 110.692 150.811 111.995C150.091 113.299 149.133 114.282 147.936 114.945C146.74 115.609 145.394 115.907 143.898 115.842C142.403 115.776 140.85 115.298 139.238 114.408ZM140.226 112.618C141.55 113.348 142.788 113.743 143.943 113.803C145.095 113.867 146.112 113.653 146.994 113.16C147.874 112.672 148.569 111.965 149.079 111.04C149.59 110.115 149.819 109.147 149.766 108.138C149.71 107.134 149.349 106.159 148.683 105.214C148.014 104.274 147.018 103.439 145.695 102.708C144.372 101.978 143.134 101.581 141.982 101.516C140.828 101.456 139.811 101.671 138.931 102.159C138.049 102.652 137.353 103.361 136.842 104.286C136.331 105.211 136.104 106.176 136.16 107.18C136.213 108.19 136.574 109.164 137.242 110.105C137.908 111.05 138.903 111.887 140.226 112.618Z" fill="black"/>
<path d="M118.176 121.49L129.904 135.271L127.959 136.182L118.624 124.857L118.47 124.929L121.137 139.379L118.976 140.391L109.579 129.095L109.425 129.167L112.154 143.588L110.209 144.499L107.125 126.669L109.1 125.743L118.49 136.703L118.614 136.646L116.2 122.416L118.176 121.49Z" fill="black"/>
<path d="M73.4222 143.113L76.7208 125.973L78.7294 126.36L85.4795 141.615L85.6469 141.647L88.2368 128.189L90.3123 128.589L87.0137 145.729L85.0051 145.342L78.228 130.047L78.0607 130.015L75.4643 143.506L73.4222 143.113Z" fill="black"/>
<circle cx="93" cy="80" r="35" fill="white"/>
<path fill-rule="evenodd" clip-rule="evenodd" d="M92.7735 91.3421L83.4477 82.2612L83 82.8402L93 93L93.4477 92.4209L103 82.8402L102.552 82.261L93.3862 91.3421L93.3862 65L92.7735 65L92.7735 91.3421Z" fill="#E2E2E2" stroke="#0E0E0E" stroke-width="2"/>
</g>
<defs>
<filter id="filter0_d_232_191" x="-3" y="-8" width="192" height="192" filterUnits="userSpaceOnUse" color-interpolation-filters="sRGB">
<feFlood flood-opacity="0" result="BackgroundImageFix"/>
<feColorMatrix in="SourceAlpha" type="matrix" values="0 0 0 0 0 0 0 0 0 0 0 0 0 0 0 0 0 0 127 0" result="hardAlpha"/>
<feOffset dy="8"/>
<feGaussianBlur stdDeviation="8"/>
<feComposite in2="hardAlpha" operator="out"/>
<feColorMatrix type="matrix" values="0 0 0 0 0 0 0 0 0 0 0 0 0 0 0 0 0 0 0.02 0"/>
<feBlend mode="multiply" in2="BackgroundImageFix" result="effect1_dropShadow_232_191"/>
<feBlend mode="normal" in="SourceGraphic" in2="effect1_dropShadow_232_191" result="shape"/>
</filter>
<clipPath id="clip0_232_191">
<rect width="186" height="160" fill="white"/>
</clipPath>
</defs>
</svg>
