<svg width="101" height="32" viewBox="0 0 101 32" fill="none" xmlns="http://www.w3.org/2000/svg">
<mask id="mask0_264_1321" style="mask-type:luminance" maskUnits="userSpaceOnUse" x="0" y="0" width="32" height="32">
<path d="M1.39876e-06 32L0 0L32 -1.39876e-06L32 32L1.39876e-06 32Z" fill="white"/>
</mask>
<g mask="url(#mask0_264_1321)">
<path fill-rule="evenodd" clip-rule="evenodd" d="M3.49691e-07 8L0 0L16 -6.99382e-07C24.8365 -1.08564e-06 32 7.16344 32 16C32 24.8365 24.8365 32 16 32L1.39876e-06 32L1.04907e-06 24C8.55946e-07 19.5818 3.58173 16 8 16C3.58173 16 5.4282e-07 12.4183 3.49691e-07 8Z" fill="white"/>
</g>
<path fill-rule="evenodd" clip-rule="evenodd" d="M7.896 16.0002C7.896 22.6562 13.2918 28.0521 19.9479 28.0521C26.604 28.0521 31.9999 22.6562 31.9999 16.0002C31.9999 9.34408 26.604 3.94824 19.9479 3.94824C13.2918 3.94824 7.896 9.34408 7.896 16.0002ZM7.896 16.0002C7.896 20.5929 11.6191 24.316 16.2118 24.316C20.8046 24.316 24.5277 20.5929 24.5277 16.0002C24.5277 11.4075 20.8046 7.68434 16.2118 7.68434C11.6191 7.68435 7.896 11.4075 7.896 16.0002ZM16.2118 19.8568C14.0819 19.8568 12.3552 18.1301 12.3552 16.0002C12.3552 13.8702 14.0819 12.1436 16.2118 12.1436C18.3418 12.1436 20.0685 13.8702 20.0685 16.0002C20.0685 18.1301 18.3418 19.8568 16.2118 19.8568Z" fill="#0E0E0E"/>
<path d="M95.8795 13.1736C94.685 13.1736 93.6839 13.7456 92.8764 14.8897C92.0856 16.0337 91.6902 17.6153 91.6902 19.6342C91.6902 21.6532 92.052 23.1505 92.7754 24.1264C93.5157 25.1022 94.4831 25.5901 95.6776 25.5901C97.175 25.5901 98.5042 25.3377 99.6651 24.833L99.7408 25.0096C98.5462 25.5312 97.1498 25.792 95.5515 25.792C93.9531 25.792 92.624 25.2873 91.564 24.2778C90.5041 23.2683 89.9741 21.712 89.9741 19.609C89.9741 17.5059 90.5293 15.8739 91.6398 14.713C92.7502 13.5521 94.1634 12.9717 95.8795 12.9717C96.8385 12.9717 97.7218 13.1904 98.5294 13.6278C99.3538 14.0653 99.9595 14.7298 100.346 15.6215H98.7313C98.4789 14.7971 98.092 14.183 97.5704 13.7793C97.0657 13.3755 96.502 13.1736 95.8795 13.1736Z" fill="white"/>
<path d="M88.1734 25.6906C87.4835 25.6906 86.9536 25.5391 86.5834 25.2363C86.2301 24.9334 86.045 24.6306 86.0282 24.3278L86.003 23.8987V13.0721H87.7696V23.8987C87.7696 24.3866 87.8621 24.7652 88.0472 25.0344C88.2491 25.2868 88.4425 25.4214 88.6276 25.4382L88.9305 25.4887H89.7128V25.6906H88.1734ZM86.1544 10.2456C85.9525 10.0437 85.8516 9.79135 85.8516 9.48851C85.8516 9.18566 85.9525 8.93329 86.1544 8.7314C86.3563 8.51268 86.6087 8.40332 86.9115 8.40332C87.2144 8.40332 87.4667 8.51268 87.6686 8.7314C87.8873 8.93329 87.9967 9.18566 87.9967 9.48851C87.9967 9.79135 87.8873 10.0437 87.6686 10.2456C87.4667 10.4475 87.2144 10.5485 86.9115 10.5485C86.6087 10.5485 86.3563 10.4475 86.1544 10.2456Z" fill="white"/>
<path d="M78.313 13.2744V13.0725H78.843V10.5488H80.6095V13.0725H84.4708V13.2744H80.6095V22.4606C80.6095 23.5542 80.7273 24.345 80.9629 24.8329C81.2152 25.3208 81.7284 25.5647 82.5023 25.5647C83.2931 25.5647 84.0922 25.4049 84.8998 25.0852L84.9755 25.2871C84.1343 25.6068 83.1669 25.7666 82.0733 25.7666C80.9965 25.7666 80.1889 25.5479 79.6505 25.1105C79.1122 24.6562 78.843 23.7645 78.843 22.4354V13.2744H78.313Z" fill="white"/>
<path d="M65.814 13.0726H67.5805V16.202C67.8666 15.4281 68.3965 14.6962 69.1705 14.0064C69.9444 13.3166 70.8193 12.9717 71.7951 12.9717C75.2105 12.9717 76.9182 14.9738 76.9182 18.978C76.9182 23.5207 74.7142 25.792 70.3061 25.792C69.5154 25.792 68.6068 25.6069 67.5805 25.2368V32.0003H65.814V13.0726ZM71.7699 13.1736C70.7267 13.1736 69.7846 13.6278 68.9433 14.5364C68.1021 15.4281 67.6478 16.2356 67.5805 16.9591V25.0096C68.6068 25.3966 69.507 25.5901 70.2809 25.5901C73.528 25.5901 75.1516 23.3777 75.1516 18.9528C75.1516 15.1 74.0243 13.1736 71.7699 13.1736Z" fill="white"/>
<path d="M58.4181 25.792C56.6516 25.792 55.2131 25.2873 54.1026 24.2778C52.9922 23.2683 52.437 21.712 52.437 19.609C52.437 17.5059 53.009 15.8739 54.1531 14.713C55.314 13.5521 56.7777 12.9717 58.5443 12.9717C60.3277 12.9717 61.7746 13.4764 62.8851 14.4859C63.9955 15.4954 64.5507 17.0516 64.5507 19.1547C64.5507 21.2578 63.9702 22.8898 62.8093 24.0506C61.6653 25.2115 60.2015 25.792 58.4181 25.792ZM58.5948 13.1736C57.3161 13.1736 56.2562 13.7456 55.415 14.8897C54.5737 16.0169 54.1531 17.5984 54.1531 19.6342C54.1531 21.6532 54.5401 23.1505 55.314 24.1264C56.0879 25.1022 57.1142 25.5901 58.3929 25.5901C59.6716 25.5901 60.7315 25.0265 61.5727 23.8992C62.414 22.7552 62.8346 21.1737 62.8346 19.1547C62.8346 17.1189 62.4476 15.6131 61.6737 14.6373C60.8998 13.6615 59.8735 13.1736 58.5948 13.1736Z" fill="white"/>
<path d="M40.0189 8.05047C40.7592 8.01682 41.4827 8 42.1893 8C42.9128 8 43.6699 8.07571 44.4606 8.22713C45.2682 8.37855 46.059 8.66457 46.8329 9.08518C47.6236 9.48897 48.2882 10.0189 48.8266 10.6751C49.3818 11.3144 49.8277 12.1641 50.1642 13.224C50.5006 14.284 50.6689 15.571 50.6689 17.0853C50.6689 18.5995 50.4165 19.9623 49.9118 21.1736C49.4239 22.3682 48.7509 23.2851 47.8928 23.9244C46.2272 25.1695 44.2167 25.792 41.8612 25.792C41.0368 25.792 40.1704 25.7583 39.2618 25.691H38V8.05047H40.0189ZM40.0947 25.4891C40.448 25.5228 40.8938 25.5396 41.4322 25.5396C41.9706 25.5396 42.3744 25.5312 42.6436 25.5144C42.9128 25.4975 43.2829 25.4302 43.754 25.3125C44.2251 25.1779 44.6625 25.0012 45.0663 24.7825C45.4701 24.5638 45.8907 24.2441 46.3282 23.8235C46.7824 23.3861 47.1694 22.8729 47.489 22.284C48.2125 20.9044 48.5742 19.1042 48.5742 16.8834C48.5742 15.3019 48.3808 13.9391 47.9938 12.795C47.6068 11.6341 47.161 10.7761 46.6562 10.2208C46.1683 9.66563 45.5711 9.22819 44.8644 8.90853C44.1578 8.57203 43.5942 8.37855 43.1736 8.32808C42.7529 8.27761 42.265 8.25237 41.7098 8.25237C41.1546 8.25237 40.6162 8.27761 40.0947 8.32808V25.4891Z" fill="white"/>
</svg>
