<svg width="198" height="48" viewBox="0 0 198 48" fill="none" xmlns="http://www.w3.org/2000/svg">
<path opacity="0.8" d="M36.3068 11.1633C35.8745 10.7311 35.4423 10.2989 35.0101 9.86666C33.7134 8.48356 32.3303 7.10046 30.6015 6.23602C28.6132 5.19869 26.4522 5.45801 24.2911 5.45801C21.0062 5.45801 12.794 5.45801 7.95312 5.45801L11.238 9.86666C17.2026 9.86666 26.5386 9.86666 30.8608 9.86666C32.6761 9.86666 34.2321 10.2124 35.7017 11.1633C35.961 11.2498 36.2203 11.2498 36.3068 11.1633Z" fill="#66625E"/>
<path opacity="0.9" d="M39.9367 18.2517C39.5045 17.8195 39.0723 17.3873 38.6401 16.955C37.3434 15.5719 35.9603 14.1888 34.2315 13.3244C32.2432 12.2871 30.0821 12.5464 27.921 12.5464C25.0684 12.5464 18.2393 12.5464 13.3984 12.5464L16.6833 16.955C22.5615 16.955 30.6008 16.955 34.5772 16.955C36.3925 16.955 37.9485 17.3008 39.4181 18.2517C39.591 18.3381 39.7639 18.3381 39.9367 18.2517Z" fill="#66625E"/>
<path d="M44 25.1667C43.5677 24.7345 43.1355 24.3023 42.7033 23.8701C41.4066 22.487 40.0235 21.1039 38.2947 20.2394C36.3065 19.2021 34.1453 19.4614 31.9842 19.4614C29.3045 19.4614 23.4263 19.4614 18.6719 19.4614L21.9567 23.8701C27.662 23.8701 34.9234 23.8701 38.554 23.8701C40.3693 23.8701 41.9253 24.2159 43.3949 25.1667C43.6542 25.2532 43.8271 25.3396 44 25.1667Z" fill="#66625E"/>
<path opacity="0.8" d="M7.60742 36.8368C8.03964 37.269 8.47186 37.7012 8.90408 38.1335C10.2007 39.5166 11.5838 40.8997 13.3127 41.7641C15.3009 42.8014 17.462 42.5421 19.6231 42.5421H35.9611L32.6762 38.1335C26.7115 38.1335 17.3756 38.1335 13.0534 38.1335C11.2381 38.1335 9.68208 37.7877 8.21253 36.8368C7.9532 36.7504 7.78031 36.7504 7.60742 36.8368Z" fill="#66625E"/>
<path opacity="0.9" d="M3.97656 29.7489C4.40878 30.1811 4.841 30.6134 5.27322 31.0456C6.56988 32.4287 7.95298 33.8118 9.68186 34.6762C11.6701 35.7136 13.8312 35.4542 15.9923 35.4542H30.5149L27.23 31.0456C21.3518 31.0456 13.3125 31.0456 9.33609 31.0456C7.52076 31.0456 5.96477 30.6998 4.49522 29.7489C4.32233 29.6625 4.14945 29.6625 3.97656 29.7489Z" fill="#66625E"/>
<path d="M0 22.7465C0.43222 23.1787 0.86444 23.6109 1.29666 24.0431C2.59332 25.4262 3.97643 26.8094 5.70531 27.6738C7.69352 28.7111 9.85461 28.4518 12.0157 28.4518H25.3281L22.0432 24.0431C16.3379 24.0431 9.07662 24.0431 5.44598 24.0431C3.63065 24.0431 2.07465 23.6974 0.605106 22.7465C0.345773 22.66 0.172888 22.66 0 22.7465Z" fill="#66625E"/>
<path d="M53.9316 14.0078V33.9998H58.3276V25.7398H66.6996V22.3238H58.3276V17.7038H67.9876V14.0078H53.9316Z" fill="#66625E"/>
<path d="M79.0133 25.2078H72.5453C72.564 24.9278 72.62 24.6105 72.7133 24.2558C72.8253 23.9011 73.0026 23.5651 73.2453 23.2478C73.5066 22.9305 73.8426 22.6691 74.2533 22.4638C74.6826 22.2398 75.2146 22.1278 75.8493 22.1278C76.82 22.1278 77.5386 22.3891 78.0053 22.9118C78.4906 23.4345 78.8266 24.1998 79.0133 25.2078ZM72.5453 27.7278H82.9893C83.064 26.6078 82.9706 25.5345 82.7093 24.5078C82.448 23.4811 82.0186 22.5665 81.4213 21.7638C80.8426 20.9611 80.096 20.3265 79.1813 19.8598C78.2666 19.3745 77.1933 19.1318 75.9613 19.1318C74.86 19.1318 73.852 19.3278 72.9373 19.7198C72.0413 20.1118 71.2666 20.6531 70.6133 21.3438C69.96 22.0158 69.456 22.8185 69.1013 23.7518C68.7466 24.6851 68.5693 25.6931 68.5693 26.7758C68.5693 27.8958 68.7373 28.9225 69.0733 29.8558C69.428 30.7891 69.9226 31.5918 70.5573 32.2638C71.192 32.9358 71.9666 33.4585 72.8813 33.8318C73.796 34.1865 74.8226 34.3638 75.9613 34.3638C77.604 34.3638 79.004 33.9905 80.1613 33.2438C81.3186 32.4971 82.1773 31.2558 82.7373 29.5198H79.2373C79.1066 29.9678 78.752 30.3971 78.1733 30.8078C77.5946 31.1998 76.904 31.3958 76.1013 31.3958C74.9813 31.3958 74.1226 31.1065 73.5253 30.5278C72.928 29.9491 72.6013 29.0158 72.5453 27.7278Z" fill="#66625E"/>
<path d="M84.3394 23.9758C84.3954 23.0425 84.6288 22.2678 85.0394 21.6518C85.4501 21.0358 85.9728 20.5411 86.6074 20.1678C87.2421 19.7945 87.9514 19.5331 88.7354 19.3838C89.5381 19.2158 90.3408 19.1318 91.1434 19.1318C91.8714 19.1318 92.6088 19.1878 93.3554 19.2998C94.1021 19.3931 94.7834 19.5891 95.3994 19.8878C96.0154 20.1865 96.5194 20.6065 96.9114 21.1478C97.3034 21.6705 97.4994 22.3705 97.4994 23.2478V30.7798C97.4994 31.4331 97.5368 32.0585 97.6114 32.6558C97.6861 33.2531 97.8168 33.7011 98.0034 33.9998H93.9714C93.8968 33.7758 93.8314 33.5518 93.7754 33.3278C93.7381 33.0851 93.7101 32.8425 93.6914 32.5998C93.0568 33.2531 92.3101 33.7105 91.4514 33.9718C90.5928 34.2331 89.7154 34.3638 88.8194 34.3638C88.1288 34.3638 87.4848 34.2798 86.8874 34.1118C86.2901 33.9438 85.7674 33.6825 85.3194 33.3278C84.8714 32.9731 84.5168 32.5251 84.2554 31.9838C84.0128 31.4425 83.8914 30.7985 83.8914 30.0518C83.8914 29.2305 84.0314 28.5585 84.3114 28.0358C84.6101 27.4945 84.9834 27.0651 85.4314 26.7478C85.8981 26.4305 86.4208 26.1971 86.9994 26.0478C87.5968 25.8798 88.1941 25.7491 88.7914 25.6558C89.3888 25.5625 89.9768 25.4878 90.5554 25.4318C91.1341 25.3758 91.6474 25.2918 92.0954 25.1798C92.5434 25.0678 92.8981 24.9091 93.1594 24.7038C93.4208 24.4798 93.5421 24.1625 93.5234 23.7518C93.5234 23.3225 93.4488 22.9865 93.2994 22.7438C93.1688 22.4825 92.9821 22.2865 92.7394 22.1558C92.5154 22.0065 92.2448 21.9131 91.9274 21.8758C91.6288 21.8198 91.3021 21.7918 90.9474 21.7918C90.1634 21.7918 89.5474 21.9598 89.0994 22.2958C88.6514 22.6318 88.3901 23.1918 88.3154 23.9758H84.3394ZM93.5234 26.9158C93.3554 27.0651 93.1408 27.1865 92.8794 27.2798C92.6368 27.3545 92.3661 27.4198 92.0674 27.4758C91.7874 27.5318 91.4888 27.5785 91.1714 27.6158C90.8541 27.6531 90.5368 27.6998 90.2194 27.7558C89.9208 27.8118 89.6221 27.8865 89.3234 27.9798C89.0434 28.0731 88.7914 28.2038 88.5674 28.3718C88.3621 28.5211 88.1941 28.7171 88.0634 28.9598C87.9328 29.2025 87.8674 29.5105 87.8674 29.8838C87.8674 30.2385 87.9328 30.5371 88.0634 30.7798C88.1941 31.0225 88.3714 31.2185 88.5954 31.3678C88.8194 31.4985 89.0808 31.5918 89.3794 31.6478C89.6781 31.7038 89.9861 31.7318 90.3034 31.7318C91.0874 31.7318 91.6941 31.6011 92.1234 31.3398C92.5528 31.0785 92.8701 30.7705 93.0754 30.4158C93.2808 30.0425 93.4021 29.6691 93.4394 29.2958C93.4954 28.9225 93.5234 28.6238 93.5234 28.3998V26.9158Z" fill="#66625E"/>
<path d="M104.786 19.5238V15.1838H100.81V19.5238H98.4015V22.1838H100.81V30.7238C100.81 31.4518 100.931 32.0398 101.174 32.4878C101.416 32.9358 101.743 33.2811 102.154 33.5238C102.583 33.7665 103.068 33.9251 103.61 33.9998C104.17 34.0931 104.758 34.1398 105.374 34.1398C105.766 34.1398 106.167 34.1305 106.578 34.1118C106.988 34.0931 107.362 34.0558 107.698 33.9998V30.9198C107.511 30.9571 107.315 30.9851 107.11 31.0038C106.904 31.0225 106.69 31.0318 106.466 31.0318C105.794 31.0318 105.346 30.9198 105.122 30.6958C104.898 30.4718 104.786 30.0238 104.786 29.3518V22.1838H107.698V19.5238H104.786Z" fill="#66625E"/>
<path d="M108.749 14.0078V33.9998H112.725V26.4118C112.725 24.9371 112.968 23.8825 113.453 23.2478C113.939 22.5945 114.723 22.2678 115.805 22.2678C116.757 22.2678 117.42 22.5665 117.793 23.1638C118.167 23.7425 118.353 24.6291 118.353 25.8238V33.9998H122.329V25.0958C122.329 24.1998 122.245 23.3878 122.077 22.6598C121.928 21.9131 121.657 21.2878 121.265 20.7838C120.873 20.2611 120.332 19.8598 119.641 19.5798C118.969 19.2811 118.101 19.1318 117.037 19.1318C116.291 19.1318 115.525 19.3278 114.741 19.7198C113.957 20.0931 113.313 20.6998 112.809 21.5398H112.725V14.0078H108.749Z" fill="#66625E"/>
<path d="M134.251 25.2078H127.783C127.802 24.9278 127.858 24.6105 127.951 24.2558C128.063 23.9011 128.24 23.5651 128.483 23.2478C128.744 22.9305 129.08 22.6691 129.491 22.4638C129.92 22.2398 130.452 22.1278 131.087 22.1278C132.058 22.1278 132.776 22.3891 133.243 22.9118C133.728 23.4345 134.064 24.1998 134.251 25.2078ZM127.783 27.7278H138.227C138.302 26.6078 138.208 25.5345 137.947 24.5078C137.686 23.4811 137.256 22.5665 136.659 21.7638C136.08 20.9611 135.334 20.3265 134.419 19.8598C133.504 19.3745 132.431 19.1318 131.199 19.1318C130.098 19.1318 129.09 19.3278 128.175 19.7198C127.279 20.1118 126.504 20.6531 125.851 21.3438C125.198 22.0158 124.694 22.8185 124.339 23.7518C123.984 24.6851 123.807 25.6931 123.807 26.7758C123.807 27.8958 123.975 28.9225 124.311 29.8558C124.666 30.7891 125.16 31.5918 125.795 32.2638C126.43 32.9358 127.204 33.4585 128.119 33.8318C129.034 34.1865 130.06 34.3638 131.199 34.3638C132.842 34.3638 134.242 33.9905 135.399 33.2438C136.556 32.4971 137.415 31.2558 137.975 29.5198H134.475C134.344 29.9678 133.99 30.3971 133.411 30.8078C132.832 31.1998 132.142 31.3958 131.339 31.3958C130.219 31.3958 129.36 31.1065 128.763 30.5278C128.166 29.9491 127.839 29.0158 127.783 27.7278Z" fill="#66625E"/>
<path d="M139.745 19.5238V33.9998H143.721V27.4758C143.721 26.8225 143.786 26.2158 143.917 25.6558C144.048 25.0958 144.262 24.6105 144.561 24.1998C144.878 23.7705 145.289 23.4345 145.793 23.1918C146.297 22.9491 146.913 22.8278 147.641 22.8278C147.884 22.8278 148.136 22.8465 148.397 22.8838C148.658 22.9025 148.882 22.9305 149.069 22.9678V19.2718C148.752 19.1785 148.462 19.1318 148.201 19.1318C147.697 19.1318 147.212 19.2065 146.745 19.3558C146.278 19.5051 145.84 19.7198 145.429 19.9998C145.018 20.2611 144.654 20.5878 144.337 20.9798C144.02 21.3531 143.768 21.7638 143.581 22.2118H143.525V19.5238H139.745Z" fill="#66625E"/>
<path d="M154.604 30.3038V17.7038H157.74C158.823 17.7038 159.728 17.8625 160.456 18.1798C161.203 18.4785 161.8 18.9171 162.248 19.4958C162.696 20.0745 163.013 20.7745 163.2 21.5958C163.405 22.3985 163.508 23.3038 163.508 24.3118C163.508 25.4131 163.368 26.3465 163.088 27.1118C162.808 27.8771 162.435 28.5025 161.968 28.9878C161.501 29.4545 160.969 29.7905 160.372 29.9958C159.775 30.2011 159.159 30.3038 158.524 30.3038H154.604ZM150.208 14.0078V33.9998H158.832C160.363 33.9998 161.688 33.7478 162.808 33.2438C163.947 32.7211 164.889 32.0118 165.636 31.1158C166.401 30.2198 166.971 29.1558 167.344 27.9238C167.717 26.6918 167.904 25.3478 167.904 23.8918C167.904 22.2305 167.671 20.7838 167.204 19.5518C166.756 18.3198 166.121 17.2931 165.3 16.4718C164.497 15.6505 163.536 15.0345 162.416 14.6238C161.315 14.2131 160.12 14.0078 158.832 14.0078H150.208Z" fill="#66625E"/>
<path d="M179.446 25.2078H172.978C172.996 24.9278 173.052 24.6105 173.146 24.2558C173.258 23.9011 173.435 23.5651 173.678 23.2478C173.939 22.9305 174.275 22.6691 174.686 22.4638C175.115 22.2398 175.647 22.1278 176.282 22.1278C177.252 22.1278 177.971 22.3891 178.438 22.9118C178.923 23.4345 179.259 24.1998 179.446 25.2078ZM172.978 27.7278H183.422C183.496 26.6078 183.403 25.5345 183.142 24.5078C182.88 23.4811 182.451 22.5665 181.854 21.7638C181.275 20.9611 180.528 20.3265 179.614 19.8598C178.699 19.3745 177.626 19.1318 176.394 19.1318C175.292 19.1318 174.284 19.3278 173.37 19.7198C172.474 20.1118 171.699 20.6531 171.046 21.3438C170.392 22.0158 169.888 22.8185 169.534 23.7518C169.179 24.6851 169.002 25.6931 169.002 26.7758C169.002 27.8958 169.17 28.9225 169.506 29.8558C169.86 30.7891 170.355 31.5918 170.99 32.2638C171.624 32.9358 172.399 33.4585 173.314 33.8318C174.228 34.1865 175.255 34.3638 176.394 34.3638C178.036 34.3638 179.436 33.9905 180.594 33.2438C181.751 32.4971 182.61 31.2558 183.17 29.5198H179.67C179.539 29.9678 179.184 30.3971 178.606 30.8078C178.027 31.1998 177.336 31.3958 176.534 31.3958C175.414 31.3958 174.555 31.1065 173.958 30.5278C173.36 29.9491 173.034 29.0158 172.978 27.7278Z" fill="#66625E"/>
<path d="M192.948 33.9998L197.848 19.5238H193.9L190.848 29.4078H190.792L187.74 19.5238H183.568L188.524 33.9998H192.948Z" fill="#66625E"/>
</svg>
