<svg width="167" height="48" viewBox="0 0 167 48" fill="none" xmlns="http://www.w3.org/2000/svg">
<path fill-rule="evenodd" clip-rule="evenodd" d="M19.7655 3.44802C19.2605 3.34415 18.7396 3.34415 18.2345 3.44802C17.6507 3.56809 17.1289 3.86035 16.7141 4.0927L16.601 4.15587L2.54153 11.9667C2.50266 11.9883 2.46261 12.0103 2.42157 12.033C1.98243 12.2748 1.43029 12.5789 1.00627 13.0391C0.639674 13.4369 0.362246 13.9084 0.192535 14.422C-0.00375985 15.0161 -0.00146325 15.6465 0.000363158 16.1478C0.000533889 16.1947 0.000700421 16.2404 0.000700421 16.2849V31.7068C0.000700421 31.7513 0.000533889 31.797 0.000363158 31.8438C-0.00146325 32.3452 -0.00375985 32.9755 0.192536 33.5697C0.362247 34.0833 0.639677 34.5548 1.00627 34.9526C1.43029 35.4127 1.98244 35.7168 2.42157 35.9587C2.46261 35.9813 2.50266 36.0034 2.54153 36.025L16.601 43.8358L16.7141 43.899C17.1289 44.1313 17.6507 44.4236 18.2345 44.5436C18.7396 44.6475 19.2605 44.6475 19.7655 44.5436C20.3493 44.4236 20.8711 44.1313 21.2859 43.899L21.399 43.8358L35.4585 36.025C35.4757 36.0154 35.4931 36.0058 35.5107 35.9961C35.5329 35.9838 35.5555 35.9713 35.5784 35.9587C36.0176 35.7169 36.5697 35.4127 36.9937 34.9526C37.3603 34.5548 37.6378 34.0833 37.8075 33.5697C38.0038 32.9755 38.0015 32.3452 37.9996 31.8438C37.9995 31.797 37.9993 31.7513 37.9993 31.7068V16.2849C37.9993 16.2404 37.9995 16.1947 37.9996 16.1478C38.0015 15.6465 38.0038 15.0161 37.8075 14.422C37.6378 13.9084 37.3603 13.4369 36.9937 13.0391C36.5697 12.5789 36.0176 12.2748 35.5784 12.0329L35.5769 12.0321C35.5364 12.0098 35.4968 11.988 35.4585 11.9667L21.399 4.15586L21.2859 4.09269C20.8711 3.86035 20.3493 3.56809 19.7655 3.44802ZM18.4464 7.47754C18.7343 7.31759 18.8813 7.23676 18.9909 7.18388L19 7.17953L19.0091 7.18388C19.1187 7.23676 19.2657 7.31758 19.5536 7.47754L32.1871 14.4961L18.9999 21.8223L5.81285 14.4962L18.4464 7.47754ZM3.80056 17.7251L17.1 25.1137L17.1001 39.7662L4.38691 32.7033C4.08301 32.5345 3.92785 32.4474 3.81899 32.378L3.8098 32.3721L3.80911 32.3612C3.80135 32.2324 3.80056 32.0545 3.80056 31.7068V17.7251Z" fill="#66625E"/>
<path d="M55.2908 30.3452H61.3388V33.9092H50.6738V14.9552H55.2908V30.3452Z" fill="#66625E"/>
<path d="M65.593 17.2772C64.783 17.2772 64.117 17.0432 63.595 16.5752C63.091 16.0892 62.839 15.4952 62.839 14.7932C62.839 14.0732 63.091 13.4792 63.595 13.0112C64.117 12.5252 64.783 12.2822 65.593 12.2822C66.385 12.2822 67.033 12.5252 67.537 13.0112C68.059 13.4792 68.32 14.0732 68.32 14.7932C68.32 15.4952 68.059 16.0892 67.537 16.5752C67.033 17.0432 66.385 17.2772 65.593 17.2772ZM67.888 18.8432V33.9092H63.271V18.8432H67.888Z" fill="#66625E"/>
<path d="M76.6879 18.6272C77.7499 18.6272 78.6769 18.8432 79.4689 19.2752C80.2789 19.7072 80.8999 20.2742 81.3319 20.9762V18.8432H85.9489V33.8822C85.9489 35.2682 85.6699 36.5192 85.1119 37.6352C84.5719 38.7692 83.7349 39.6692 82.6009 40.3352C81.4849 41.0012 80.0899 41.3342 78.4159 41.3342C76.1839 41.3342 74.3749 40.8032 72.9889 39.7412C71.6029 38.6972 70.8109 37.2752 70.6129 35.4752H75.1759C75.3199 36.0512 75.6619 36.5012 76.2019 36.8252C76.7419 37.1672 77.4079 37.3382 78.1999 37.3382C79.1539 37.3382 79.9099 37.0592 80.4679 36.5012C81.0439 35.9612 81.3319 35.0882 81.3319 33.8822V31.7492C80.8819 32.4512 80.2609 33.0272 79.4689 33.4772C78.6769 33.9092 77.7499 34.1252 76.6879 34.1252C75.4459 34.1252 74.3209 33.8102 73.3129 33.1802C72.3049 32.5322 71.5039 31.6232 70.9099 30.4532C70.3339 29.2652 70.0459 27.8972 70.0459 26.3492C70.0459 24.8012 70.3339 23.4422 70.9099 22.2722C71.5039 21.1022 72.3049 20.2022 73.3129 19.5722C74.3209 18.9422 75.4459 18.6272 76.6879 18.6272ZM81.3319 26.3762C81.3319 25.2242 81.0079 24.3152 80.3599 23.6492C79.7299 22.9832 78.9559 22.6502 78.0379 22.6502C77.1199 22.6502 76.3369 22.9832 75.6889 23.6492C75.0589 24.2972 74.7439 25.1972 74.7439 26.3492C74.7439 27.5012 75.0589 28.4192 75.6889 29.1032C76.3369 29.7692 77.1199 30.1022 78.0379 30.1022C78.9559 30.1022 79.7299 29.7692 80.3599 29.1032C81.0079 28.4372 81.3319 27.5282 81.3319 26.3762Z" fill="#66625E"/>
<path d="M98.2801 18.6812C100.008 18.6812 101.394 19.2572 102.438 20.4092C103.482 21.5432 104.004 23.1092 104.004 25.1072V33.9092H99.4141V25.7282C99.4141 24.7202 99.1531 23.9372 98.6311 23.3792C98.1091 22.8212 97.4071 22.5422 96.5251 22.5422C95.6431 22.5422 94.9411 22.8212 94.4191 23.3792C93.8971 23.9372 93.6361 24.7202 93.6361 25.7282V33.9092H89.0191V13.9292H93.6361V20.8682C94.1041 20.2022 94.7431 19.6712 95.5531 19.2752C96.3631 18.8792 97.2721 18.6812 98.2801 18.6812Z" fill="#66625E"/>
<path d="M115.339 29.9942V33.9092H112.99C111.316 33.9092 110.011 33.5042 109.075 32.6942C108.139 31.8662 107.671 30.5252 107.671 28.6712V22.6772H105.835V18.8432H107.671V15.1712H112.288V18.8432H115.312V22.6772H112.288V28.7252C112.288 29.1752 112.396 29.4992 112.612 29.6972C112.828 29.8952 113.188 29.9942 113.692 29.9942H115.339Z" fill="#66625E"/>
<path d="M122.258 20.9762C122.69 20.2742 123.311 19.7072 124.121 19.2752C124.931 18.8432 125.858 18.6272 126.902 18.6272C128.144 18.6272 129.269 18.9422 130.277 19.5722C131.285 20.2022 132.077 21.1022 132.653 22.2722C133.247 23.4422 133.544 24.8012 133.544 26.3492C133.544 27.8972 133.247 29.2652 132.653 30.4532C132.077 31.6232 131.285 32.5322 130.277 33.1802C129.269 33.8102 128.144 34.1252 126.902 34.1252C125.84 34.1252 124.913 33.9182 124.121 33.5042C123.329 33.0722 122.708 32.5052 122.258 31.8032V33.9092H117.641V13.9292H122.258V20.9762ZM128.846 26.3492C128.846 25.1972 128.522 24.2972 127.874 23.6492C127.244 22.9832 126.461 22.6502 125.525 22.6502C124.607 22.6502 123.824 22.9832 123.176 23.6492C122.546 24.3152 122.231 25.2242 122.231 26.3762C122.231 27.5282 122.546 28.4372 123.176 29.1032C123.824 29.7692 124.607 30.1022 125.525 30.1022C126.443 30.1022 127.226 29.7692 127.874 29.1032C128.522 28.4192 128.846 27.5012 128.846 26.3492Z" fill="#66625E"/>
<path d="M142.554 34.1252C141.078 34.1252 139.746 33.8102 138.558 33.1802C137.388 32.5502 136.461 31.6502 135.777 30.4802C135.111 29.3102 134.778 27.9422 134.778 26.3762C134.778 24.8282 135.12 23.4692 135.804 22.2992C136.488 21.1112 137.424 20.2022 138.612 19.5722C139.8 18.9422 141.132 18.6272 142.608 18.6272C144.084 18.6272 145.416 18.9422 146.604 19.5722C147.792 20.2022 148.728 21.1112 149.412 22.2992C150.096 23.4692 150.438 24.8282 150.438 26.3762C150.438 27.9242 150.087 29.2922 149.385 30.4802C148.701 31.6502 147.756 32.5502 146.55 33.1802C145.362 33.8102 144.03 34.1252 142.554 34.1252ZM142.554 30.1292C143.436 30.1292 144.183 29.8052 144.795 29.1572C145.425 28.5092 145.74 27.5822 145.74 26.3762C145.74 25.1702 145.434 24.2432 144.822 23.5952C144.228 22.9472 143.49 22.6232 142.608 22.6232C141.708 22.6232 140.961 22.9472 140.367 23.5952C139.773 24.2252 139.476 25.1522 139.476 26.3762C139.476 27.5822 139.764 28.5092 140.34 29.1572C140.934 29.8052 141.672 30.1292 142.554 30.1292Z" fill="#66625E"/>
<path d="M161.528 33.9092L158.639 29.7242L156.209 33.9092H151.214L156.182 26.2142L151.079 18.8432H156.263L159.152 23.0012L161.582 18.8432H166.577L161.528 26.4302L166.712 33.9092H161.528Z" fill="#66625E"/>
</svg>
