<svg width="101" height="32" viewBox="0 0 101 32" fill="none" xmlns="http://www.w3.org/2000/svg">
<mask id="mask0_264_1287" style="mask-type:luminance" maskUnits="userSpaceOnUse" x="0" y="0" width="32" height="32">
<path d="M1.39876e-06 32L0 0L32 -1.39876e-06L32 32L1.39876e-06 32Z" fill="white"/>
</mask>
<g mask="url(#mask0_264_1287)">
<path fill-rule="evenodd" clip-rule="evenodd" d="M3.49691e-07 8L0 0L16 -6.99382e-07C24.8365 -1.08564e-06 32 7.16344 32 16C32 24.8365 24.8365 32 16 32L1.39876e-06 32L1.04907e-06 24C8.55946e-07 19.5818 3.58173 16 8 16C3.58173 16 5.4282e-07 12.4183 3.49691e-07 8Z" fill="#0E0E0E"/>
</g>
<path fill-rule="evenodd" clip-rule="evenodd" d="M7.89612 16.0002C7.89612 22.6562 13.292 28.0521 19.9481 28.0521C26.6041 28.0521 32 22.6562 32 16.0002C32 9.34408 26.6041 3.94824 19.9481 3.94824C13.292 3.94824 7.89612 9.34408 7.89612 16.0002ZM7.89612 16.0002C7.89612 20.5929 11.6192 24.316 16.212 24.316C20.8047 24.316 24.5278 20.5929 24.5278 16.0002C24.5278 11.4075 20.8047 7.68434 16.212 7.68434C11.6192 7.68435 7.89612 11.4075 7.89612 16.0002ZM16.212 19.8568C14.082 19.8568 12.3553 18.1301 12.3553 16.0002C12.3553 13.8702 14.082 12.1436 16.212 12.1436C18.3419 12.1436 20.0686 13.8702 20.0686 16.0002C20.0686 18.1301 18.3419 19.8568 16.212 19.8568Z" fill="#E2E2E2"/>
<path d="M95.8795 13.1736C94.6849 13.1736 93.6839 13.7456 92.8763 14.8897C92.0855 16.0337 91.6902 17.6153 91.6902 19.6342C91.6902 21.6532 92.0519 23.1505 92.7753 24.1264C93.5156 25.1022 94.483 25.5901 95.6776 25.5901C97.175 25.5901 98.5041 25.3377 99.665 24.833L99.7407 25.0096C98.5462 25.5312 97.1497 25.792 95.5514 25.792C93.9531 25.792 92.6239 25.2873 91.564 24.2778C90.504 23.2683 89.9741 21.712 89.9741 19.609C89.9741 17.5059 90.5293 15.8739 91.6397 14.713C92.7501 13.5521 94.1634 12.9717 95.8795 12.9717C96.8385 12.9717 97.7218 13.1904 98.5293 13.6278C99.3537 14.0653 99.9594 14.7298 100.346 15.6215H98.7312C98.4789 14.7971 98.0919 14.183 97.5703 13.7793C97.0656 13.3755 96.502 13.1736 95.8795 13.1736Z" fill="#0E0E0E"/>
<path d="M88.1732 25.6906C87.4834 25.6906 86.9534 25.5391 86.5832 25.2363C86.2299 24.9334 86.0449 24.6306 86.028 24.3278L86.0028 23.8987V13.0721H87.7694V23.8987C87.7694 24.3866 87.8619 24.7652 88.047 25.0344C88.2489 25.2868 88.4424 25.4214 88.6274 25.4382L88.9303 25.4887H89.7126V25.6906H88.1732ZM86.1542 10.2456C85.9523 10.0437 85.8514 9.79135 85.8514 9.48851C85.8514 9.18566 85.9523 8.93329 86.1542 8.7314C86.3561 8.51268 86.6085 8.40332 86.9113 8.40332C87.2142 8.40332 87.4665 8.51268 87.6684 8.7314C87.8872 8.93329 87.9965 9.18566 87.9965 9.48851C87.9965 9.79135 87.8872 10.0437 87.6684 10.2456C87.4665 10.4475 87.2142 10.5485 86.9113 10.5485C86.6085 10.5485 86.3561 10.4475 86.1542 10.2456Z" fill="#0E0E0E"/>
<path d="M78.3129 13.2744V13.0725H78.8428V10.5488H80.6094V13.0725H84.4707V13.2744H80.6094V22.4606C80.6094 23.5542 80.7272 24.345 80.9627 24.8329C81.2151 25.3208 81.7283 25.5647 82.5022 25.5647C83.2929 25.5647 84.0921 25.4049 84.8997 25.0852L84.9754 25.2871C84.1342 25.6068 83.1668 25.7666 82.0732 25.7666C80.9964 25.7666 80.1888 25.5479 79.6504 25.1105C79.112 24.6562 78.8428 23.7645 78.8428 22.4354V13.2744H78.3129Z" fill="#0E0E0E"/>
<path d="M65.8137 13.0726H67.5803V16.202C67.8663 15.4281 68.3963 14.6962 69.1702 14.0064C69.9441 13.3166 70.819 12.9717 71.7948 12.9717C75.2102 12.9717 76.9179 14.9738 76.9179 18.978C76.9179 23.5207 74.7139 25.792 70.3059 25.792C69.5151 25.792 68.6066 25.6069 67.5803 25.2368V32.0003H65.8137V13.0726ZM71.7696 13.1736C70.7265 13.1736 69.7843 13.6278 68.9431 14.5364C68.1019 15.4281 67.6476 16.2356 67.5803 16.9591V25.0096C68.6066 25.3966 69.5067 25.5901 70.2806 25.5901C73.5278 25.5901 75.1514 23.3777 75.1514 18.9528C75.1514 15.1 74.0241 13.1736 71.7696 13.1736Z" fill="#0E0E0E"/>
<path d="M58.4184 25.792C56.6518 25.792 55.2133 25.2873 54.1029 24.2778C52.9925 23.2683 52.4373 21.712 52.4373 19.609C52.4373 17.5059 53.0093 15.8739 54.1534 14.713C55.3143 13.5521 56.778 12.9717 58.5446 12.9717C60.328 12.9717 61.7749 13.4764 62.8853 14.4859C63.9957 15.4954 64.5509 17.0516 64.5509 19.1547C64.5509 21.2578 63.9705 22.8898 62.8096 24.0506C61.6655 25.2115 60.2018 25.792 58.4184 25.792ZM58.595 13.1736C57.3164 13.1736 56.2564 13.7456 55.4152 14.8897C54.574 16.0169 54.1534 17.5984 54.1534 19.6342C54.1534 21.6532 54.5403 23.1505 55.3143 24.1264C56.0882 25.1022 57.1145 25.5901 58.3931 25.5901C59.6718 25.5901 60.7318 25.0265 61.573 23.8992C62.4142 22.7552 62.8348 21.1737 62.8348 19.1547C62.8348 17.1189 62.4479 15.6131 61.6739 14.6373C60.9 13.6615 59.8737 13.1736 58.595 13.1736Z" fill="#0E0E0E"/>
<path d="M40.0189 8.05047C40.7592 8.01682 41.4827 8 42.1893 8C42.9128 8 43.6699 8.07571 44.4606 8.22713C45.2682 8.37855 46.059 8.66457 46.8329 9.08518C47.6236 9.48897 48.2882 10.0189 48.8266 10.6751C49.3818 11.3144 49.8277 12.1641 50.1642 13.224C50.5006 14.284 50.6689 15.571 50.6689 17.0853C50.6689 18.5995 50.4165 19.9623 49.9118 21.1736C49.4239 22.3682 48.7509 23.2851 47.8928 23.9244C46.2272 25.1695 44.2167 25.792 41.8612 25.792C41.0368 25.792 40.1704 25.7583 39.2618 25.691H38V8.05047H40.0189ZM40.0947 25.4891C40.448 25.5228 40.8938 25.5396 41.4322 25.5396C41.9706 25.5396 42.3744 25.5312 42.6436 25.5144C42.9128 25.4975 43.2829 25.4302 43.754 25.3125C44.2251 25.1779 44.6625 25.0012 45.0663 24.7825C45.4701 24.5638 45.8907 24.2441 46.3282 23.8235C46.7824 23.3861 47.1694 22.8729 47.489 22.284C48.2125 20.9044 48.5742 19.1042 48.5742 16.8834C48.5742 15.3019 48.3808 13.9391 47.9938 12.795C47.6068 11.6341 47.161 10.7761 46.6562 10.2208C46.1683 9.66563 45.5711 9.22819 44.8644 8.90853C44.1578 8.57203 43.5942 8.37855 43.1736 8.32808C42.7529 8.27761 42.265 8.25237 41.7098 8.25237C41.1546 8.25237 40.6162 8.27761 40.0947 8.32808V25.4891Z" fill="#0E0E0E"/>
</svg>
