<svg width="170" height="48" viewBox="0 0 170 48" fill="none" xmlns="http://www.w3.org/2000/svg">
<path fill-rule="evenodd" clip-rule="evenodd" d="M22 46C34.1503 46 44 36.1503 44 24C44 11.8497 34.1503 2 22 2C9.84971 2 0 11.8497 0 24C0 36.1503 9.84971 46 22 46ZM28.8632 12.2485C29.1973 11.0619 28.0457 10.3601 26.994 11.1094L12.3124 21.5685C11.1718 22.3811 11.3512 24 12.5819 24H16.448V23.9701H23.9828L17.8433 26.1363L15.1368 35.7515C14.8027 36.9382 15.9542 37.6399 17.006 36.8906L31.6876 26.4315C32.8282 25.619 32.6487 24 31.4181 24H25.5553L28.8632 12.2485Z" fill="#66625E"/>
<path d="M55.3799 33.9093V30.4293H58.1399V16.3893H55.3799V12.9093H66.1799C67.4599 12.9093 68.5699 13.1293 69.5099 13.5693C70.4699 13.9893 71.2099 14.5993 71.7299 15.3993C72.2699 16.1793 72.5399 17.1193 72.5399 18.2193V18.5193C72.5399 19.4793 72.3599 20.2693 71.9999 20.8893C71.6399 21.4893 71.2099 21.9593 70.7099 22.2993C70.2299 22.6193 69.7699 22.8493 69.3299 22.9893V23.5293C69.7699 23.6493 70.2499 23.8793 70.7699 24.2193C71.2899 24.5393 71.7299 25.0093 72.0899 25.6293C72.4699 26.2493 72.6599 27.0593 72.6599 28.0593V28.3593C72.6599 29.5193 72.3899 30.5193 71.8499 31.3593C71.3099 32.1793 70.5599 32.8093 69.5999 33.2493C68.6599 33.6893 67.5599 33.9093 66.2999 33.9093H55.3799ZM62.0999 30.3093H65.8199C66.6799 30.3093 67.3699 30.0993 67.8899 29.6793C68.4299 29.2593 68.6999 28.6593 68.6999 27.8793V27.5793C68.6999 26.7993 68.4399 26.1993 67.9199 25.7793C67.3999 25.3593 66.6999 25.1493 65.8199 25.1493H62.0999V30.3093ZM62.0999 21.5493H65.7599C66.5799 21.5493 67.2499 21.3393 67.7699 20.9193C68.3099 20.4993 68.5799 19.9193 68.5799 19.1793V18.8793C68.5799 18.1193 68.3199 17.5393 67.7999 17.1393C67.2799 16.7193 66.5999 16.5093 65.7599 16.5093H62.0999V21.5493Z" fill="#66625E"/>
<path d="M81.6018 34.3293C80.1218 34.3293 78.7918 34.0293 77.6118 33.4293C76.4318 32.8293 75.5018 31.9593 74.8218 30.8193C74.1418 29.6793 73.8018 28.3093 73.8018 26.7093V26.2293C73.8018 24.6293 74.1418 23.2593 74.8218 22.1193C75.5018 20.9793 76.4318 20.1093 77.6118 19.5093C78.7918 18.9093 80.1218 18.6093 81.6018 18.6093C83.0818 18.6093 84.4118 18.9093 85.5918 19.5093C86.7718 20.1093 87.7018 20.9793 88.3818 22.1193C89.0618 23.2593 89.4018 24.6293 89.4018 26.2293V26.7093C89.4018 28.3093 89.0618 29.6793 88.3818 30.8193C87.7018 31.9593 86.7718 32.8293 85.5918 33.4293C84.4118 34.0293 83.0818 34.3293 81.6018 34.3293ZM81.6018 30.9693C82.7618 30.9693 83.7218 30.5993 84.4818 29.8593C85.2418 29.0993 85.6218 28.0193 85.6218 26.6193V26.3193C85.6218 24.9193 85.2418 23.8493 84.4818 23.1093C83.7418 22.3493 82.7818 21.9693 81.6018 21.9693C80.4418 21.9693 79.4818 22.3493 78.7218 23.1093C77.9618 23.8493 77.5818 24.9193 77.5818 26.3193V26.6193C77.5818 28.0193 77.9618 29.0993 78.7218 29.8593C79.4818 30.5993 80.4418 30.9693 81.6018 30.9693Z" fill="#66625E"/>
<path d="M91.3909 33.9093V12.9093H95.1709V33.9093H91.3909Z" fill="#66625E"/>
<path d="M103.56 33.9093C102.58 33.9093 101.78 33.6093 101.16 33.0093C100.56 32.3893 100.26 31.5693 100.26 30.5493V22.1493H96.5396V19.0293H100.26V14.4093H104.04V19.0293H108.12V22.1493H104.04V29.8893C104.04 30.4893 104.32 30.7893 104.88 30.7893H107.76V33.9093H103.56Z" fill="#66625E"/>
<path d="M116.221 34.3293C114.281 34.3293 112.691 33.9093 111.451 33.0693C110.211 32.2293 109.461 31.0293 109.201 29.4693L112.681 28.5693C112.821 29.2693 113.051 29.8193 113.371 30.2193C113.711 30.6193 114.121 30.9093 114.601 31.0893C115.101 31.2493 115.641 31.3293 116.221 31.3293C117.101 31.3293 117.751 31.1793 118.171 30.8793C118.591 30.5593 118.801 30.1693 118.801 29.7093C118.801 29.2493 118.601 28.8993 118.201 28.6593C117.801 28.3993 117.161 28.1893 116.281 28.0293L115.441 27.8793C114.401 27.6793 113.451 27.4093 112.591 27.0693C111.731 26.7093 111.041 26.2193 110.521 25.5993C110.001 24.9793 109.741 24.1793 109.741 23.1993C109.741 21.7193 110.281 20.5893 111.361 19.8093C112.441 19.0093 113.861 18.6093 115.621 18.6093C117.281 18.6093 118.661 18.9793 119.761 19.7193C120.861 20.4593 121.581 21.4293 121.921 22.6293L118.411 23.7093C118.251 22.9493 117.921 22.4093 117.421 22.0893C116.941 21.7693 116.341 21.6093 115.621 21.6093C114.901 21.6093 114.351 21.7393 113.971 21.9993C113.591 22.2393 113.401 22.5793 113.401 23.0193C113.401 23.4993 113.601 23.8593 114.001 24.0993C114.401 24.3193 114.941 24.4893 115.621 24.6093L116.461 24.7593C117.581 24.9593 118.591 25.2293 119.491 25.5693C120.411 25.8893 121.131 26.3593 121.651 26.9793C122.191 27.5793 122.461 28.3993 122.461 29.4393C122.461 30.9993 121.891 32.2093 120.751 33.0693C119.631 33.9093 118.121 34.3293 116.221 34.3293Z" fill="#66625E"/>
<path d="M124.274 33.9093V12.9093H128.054V20.8593H128.594C128.754 20.5393 129.004 20.2193 129.344 19.8993C129.684 19.5793 130.134 19.3193 130.694 19.1193C131.274 18.8993 132.004 18.7893 132.884 18.7893C134.044 18.7893 135.054 19.0593 135.914 19.5993C136.794 20.1193 137.474 20.8493 137.954 21.7893C138.434 22.7093 138.674 23.7893 138.674 25.0293V33.9093H134.894V25.3293C134.894 24.2093 134.614 23.3693 134.054 22.8093C133.514 22.2493 132.734 21.9693 131.714 21.9693C130.554 21.9693 129.654 22.3593 129.014 23.1393C128.374 23.8993 128.054 24.9693 128.054 26.3493V33.9093H124.274Z" fill="#66625E"/>
<path d="M141.26 33.9093V19.0293H145.04V33.9093H141.26ZM143.15 17.2893C142.47 17.2893 141.89 17.0693 141.41 16.6293C140.95 16.1893 140.72 15.6093 140.72 14.8893C140.72 14.1693 140.95 13.5893 141.41 13.1493C141.89 12.7093 142.47 12.4893 143.15 12.4893C143.85 12.4893 144.43 12.7093 144.89 13.1493C145.35 13.5893 145.58 14.1693 145.58 14.8893C145.58 15.6093 145.35 16.1893 144.89 16.6293C144.43 17.0693 143.85 17.2893 143.15 17.2893Z" fill="#66625E"/>
<path d="M150.189 33.9093V22.1493H146.409V19.0293H150.189V16.2693C150.189 15.2493 150.489 14.4393 151.089 13.8393C151.709 13.2193 152.509 12.9093 153.489 12.9093H157.389V16.0293H154.809C154.249 16.0293 153.969 16.3293 153.969 16.9293V19.0293H157.869V22.1493H153.969V33.9093H150.189Z" fill="#66625E"/>
<path d="M164.702 33.9093C163.722 33.9093 162.922 33.6093 162.302 33.0093C161.702 32.3893 161.402 31.5693 161.402 30.5493V22.1493H157.682V19.0293H161.402V14.4093H165.182V19.0293H169.262V22.1493H165.182V29.8893C165.182 30.4893 165.462 30.7893 166.022 30.7893H168.902V33.9093H164.702Z" fill="#66625E"/>
</svg>
