<svg width="166" height="48" viewBox="0 0 166 48" fill="none" xmlns="http://www.w3.org/2000/svg">
<circle cx="22" cy="24.2499" r="20.5" stroke="#66625E" stroke-width="3"/>
<path d="M36.495 9.7543C38.5064 11.7657 39.1303 15.1628 38.0466 19.3769C36.9726 23.5532 34.2703 28.2425 30.131 32.3817C25.9918 36.521 21.3025 39.2233 17.1262 40.2973C12.9121 41.3809 9.51504 40.7571 7.50363 38.7457C5.49222 36.7343 4.86838 33.3372 5.952 29.1231C7.026 24.9468 9.72834 20.2575 13.8676 16.1183C18.0068 11.979 22.6962 9.27667 26.8724 8.20267C31.0865 7.11905 34.4836 7.74289 36.495 9.7543Z" stroke="#66625E" stroke-width="3"/>
<path d="M7.50305 9.75426C9.51446 7.74285 12.9115 7.11901 17.1256 8.20263C21.3019 9.27662 25.9912 11.979 30.1305 16.1182C34.2697 20.2575 36.9721 24.9468 38.0461 29.123C39.1297 33.3371 38.5058 36.7342 36.4944 38.7456C34.483 40.757 31.0859 41.3809 26.8718 40.2973C22.6956 39.2233 18.0063 36.5209 13.867 32.3817C9.72775 28.2424 7.02541 23.5531 5.95142 19.3768C4.86779 15.1628 5.49164 11.7657 7.50305 9.75426Z" stroke="#66625E" stroke-width="3"/>
<path d="M62.8488 34.24C67.5588 34.24 70.7388 31.78 70.7388 27.85C70.7388 19.54 59.6988 23.08 59.6988 18.7C59.6988 17.47 60.8087 16.63 62.5787 16.63C64.5887 16.63 65.8487 17.71 65.9987 19.36H70.2888C70.1688 15.37 67.1087 12.76 62.5787 12.76C58.3187 12.76 55.3188 15.22 55.3188 18.7C55.3188 26.95 66.2087 23.8 66.2087 27.91C66.2087 29.5 64.8588 30.34 62.8488 30.34C60.6288 30.34 59.2188 28.99 59.0388 26.86H54.7188C54.8988 31.33 58.0787 34.24 62.8488 34.24Z" fill="#66625E"/>
<path d="M71.759 40.12H75.929V32.65C76.739 33.67 78.209 34.24 79.919 34.24C84.269 34.24 87.209 31.15 87.209 26.44C87.209 21.73 84.509 18.64 80.279 18.64C78.329 18.64 76.829 19.36 75.929 20.53V18.88H71.759V40.12ZM79.409 30.64C77.159 30.64 75.689 28.96 75.689 26.44C75.689 23.89 77.159 22.21 79.409 22.21C81.599 22.21 83.099 23.89 83.099 26.44C83.099 28.96 81.599 30.64 79.409 30.64Z" fill="#66625E"/>
<path d="M88.218 34H92.388V25.72C92.388 23.77 93.678 22.36 95.508 22.36C97.248 22.36 98.448 23.68 98.448 25.51V34H102.618V24.58C102.618 21.1 100.398 18.64 97.008 18.64C94.908 18.64 93.258 19.51 92.388 20.98V12.31H88.218V34Z" fill="#66625E"/>
<path d="M114.283 28.87C113.953 30.16 112.843 30.82 111.163 30.82C109.063 30.82 107.713 29.5 107.413 27.37H118.273C118.303 27.04 118.333 26.59 118.333 26.02C118.333 22.57 116.203 18.64 110.863 18.64C105.733 18.64 103.393 22.57 103.393 26.41C103.393 30.22 106.033 34.24 111.163 34.24C114.883 34.24 117.763 32.14 118.363 28.87H114.283ZM110.863 21.7C112.873 21.7 114.043 23.05 114.163 24.73H107.473C107.833 22.63 108.973 21.7 110.863 21.7Z" fill="#66625E"/>
<path d="M129.27 22.36V18.88H127.118C125.288 18.88 124.148 19.51 123.338 21.4V18.88H119.138V34H123.338V26.65C123.338 24.07 124.268 22.36 126.338 22.36H129.27Z" fill="#66625E"/>
<path d="M143.67 18.88H139.47V27.16C139.47 29.08 138.18 30.52 136.35 30.52C134.64 30.52 133.44 29.2 133.44 27.37V18.88H129.27V28.3C129.27 31.75 131.49 34.24 134.88 34.24C136.95 34.24 138.63 33.34 139.47 31.9V34H143.67V18.88Z" fill="#66625E"/>
<path d="M145.47 34H149.64V12.31H145.47V34Z" fill="#66625E"/>
<path d="M161.545 28.87C161.215 30.16 160.105 30.82 158.425 30.82C156.325 30.82 154.975 29.5 154.675 27.37H165.535C165.565 27.04 165.595 26.59 165.595 26.02C165.595 22.57 163.465 18.64 158.125 18.64C152.995 18.64 150.655 22.57 150.655 26.41C150.655 30.22 153.295 34.24 158.425 34.24C162.145 34.24 165.025 32.14 165.625 28.87H161.545ZM158.125 21.7C160.135 21.7 161.305 23.05 161.425 24.73H154.735C155.095 22.63 156.235 21.7 158.125 21.7Z" fill="#66625E"/>
</svg>
